<svg id="Layer_1" data-name="Layer 1" xmlns="http://www.w3.org/2000/svg" viewBox="0 0 149.06 142.03"><defs><style>.cls-1{fill:#fff;fill-rule:evenodd;}</style></defs><g id="DEVSTREAM-Simbol"><g id="Icon-Template-512pt-03"><path id="Fill-4" class="cls-1" d="M21.09,19l65.05.34L121.93,19c2.65.13,5.27.27,7.84.44l1.1.07a35.15,35.15,0,0,1,32.8,33.31l.07,1.52q.8,16.47.79,35.68v1.78q0,18.15-.78,33.9l-.08,1.53a35.14,35.14,0,0,1-32.87,33.33c-3,.2-6,.35-8.87.48H21.09a5.63,5.63,0,0,1-5.62-5.63V24.64A5.63,5.63,0,0,1,21.09,19Zm36.32,36.1,24.64-12.8a1.43,1.43,0,0,1,1.65.25L130.14,89a1.39,1.39,0,0,1,0,2L83.7,137.44a1.43,1.43,0,0,1-1.65.25l-24.64-12.8a1.41,1.41,0,0,1-.6-1.9,1.07,1.07,0,0,1,.15-.22l25.31-31.9a1.38,1.38,0,0,0,0-1.74L57,57.23a1.4,1.4,0,0,1,.23-2A1.07,1.07,0,0,1,57.41,55.11Z" transform="translate(-15.47 -18.98)"/></g></g></svg>